<?xml version="1.0" encoding="UTF-8"?>
<!DOCTYPE svg PUBLIC "-//W3C//DTD SVG 1.1//EN" "http://www.w3.org/Graphics/SVG/1.1/DTD/svg11.dtd">
<svg version="1.2" width="705.55mm" height="118.82mm" viewBox="0 0 70555 11882" preserveAspectRatio="xMidYMid" fill-rule="evenodd" stroke-width="28.222" stroke-linejoin="round" xmlns="http://www.w3.org/2000/svg" xmlns:ooo="http://xml.openoffice.org/svg/export" xmlns:xlink="http://www.w3.org/1999/xlink" xmlns:presentation="http://sun.com/xmlns/staroffice/presentation" xmlns:smil="http://www.w3.org/2001/SMIL20/" xmlns:anim="urn:oasis:names:tc:opendocument:xmlns:animation:1.0" xml:space="preserve">
 <defs class="ClipPathGroup">
  <clipPath id="presentation_clip_path" clipPathUnits="userSpaceOnUse">
   <rect x="0" y="0" width="70555" height="11882"/>
  </clipPath>
  <clipPath id="presentation_clip_path_shrink" clipPathUnits="userSpaceOnUse">
   <rect x="70" y="11" width="70414" height="11859"/>
  </clipPath>
 </defs>
 <defs class="TextShapeIndex">
  <g ooo:slide="id1" ooo:id-list="id3 id4 id5 id6 id7 id8 id9 id10 id11 id12 id13 id14 id15"/>
 </defs>
 <defs class="EmbeddedBulletChars">
  <g id="bullet-char-template-57356" transform="scale(0.00048828125,-0.00048828125)">
   <path d="M 580,1141 L 1163,571 580,0 -4,571 580,1141 Z"/>
  </g>
  <g id="bullet-char-template-57354" transform="scale(0.00048828125,-0.00048828125)">
   <path d="M 8,1128 L 1137,1128 1137,0 8,0 8,1128 Z"/>
  </g>
  <g id="bullet-char-template-10146" transform="scale(0.00048828125,-0.00048828125)">
   <path d="M 174,0 L 602,739 174,1481 1456,739 174,0 Z M 1358,739 L 309,1346 659,739 1358,739 Z"/>
  </g>
  <g id="bullet-char-template-10132" transform="scale(0.00048828125,-0.00048828125)">
   <path d="M 2015,739 L 1276,0 717,0 1260,543 174,543 174,936 1260,936 717,1481 1274,1481 2015,739 Z"/>
  </g>
  <g id="bullet-char-template-10007" transform="scale(0.00048828125,-0.00048828125)">
   <path d="M 0,-2 C -7,14 -16,27 -25,37 L 356,567 C 262,823 215,952 215,954 215,979 228,992 255,992 264,992 276,990 289,987 310,991 331,999 354,1012 L 381,999 492,748 772,1049 836,1024 860,1049 C 881,1039 901,1025 922,1006 886,937 835,863 770,784 769,783 710,716 594,584 L 774,223 C 774,196 753,168 711,139 L 727,119 C 717,90 699,76 672,76 641,76 570,178 457,381 L 164,-76 C 142,-110 111,-127 72,-127 30,-127 9,-110 8,-76 1,-67 -2,-52 -2,-32 -2,-23 -1,-13 0,-2 Z"/>
  </g>
  <g id="bullet-char-template-10004" transform="scale(0.00048828125,-0.00048828125)">
   <path d="M 285,-33 C 182,-33 111,30 74,156 52,228 41,333 41,471 41,549 55,616 82,672 116,743 169,778 240,778 293,778 328,747 346,684 L 369,508 C 377,444 397,411 428,410 L 1163,1116 C 1174,1127 1196,1133 1229,1133 1271,1133 1292,1118 1292,1087 L 1292,965 C 1292,929 1282,901 1262,881 L 442,47 C 390,-6 338,-33 285,-33 Z"/>
  </g>
  <g id="bullet-char-template-9679" transform="scale(0.00048828125,-0.00048828125)">
   <path d="M 813,0 C 632,0 489,54 383,161 276,268 223,411 223,592 223,773 276,916 383,1023 489,1130 632,1184 813,1184 992,1184 1136,1130 1245,1023 1353,916 1407,772 1407,592 1407,412 1353,268 1245,161 1136,54 992,0 813,0 Z"/>
  </g>
  <g id="bullet-char-template-8226" transform="scale(0.00048828125,-0.00048828125)">
   <path d="M 346,457 C 273,457 209,483 155,535 101,586 74,649 74,723 74,796 101,859 155,911 209,963 273,989 346,989 419,989 480,963 531,910 582,859 608,796 608,723 608,648 583,586 532,535 482,483 420,457 346,457 Z"/>
  </g>
  <g id="bullet-char-template-8211" transform="scale(0.00048828125,-0.00048828125)">
   <path d="M -4,459 L 1135,459 1135,606 -4,606 -4,459 Z"/>
  </g>
  <g id="bullet-char-template-61548" transform="scale(0.00048828125,-0.00048828125)">
   <path d="M 173,740 C 173,903 231,1043 346,1159 462,1274 601,1332 765,1332 928,1332 1067,1274 1183,1159 1299,1043 1357,903 1357,740 1357,577 1299,437 1183,322 1067,206 928,148 765,148 601,148 462,206 346,322 231,437 173,577 173,740 Z"/>
  </g>
 </defs>
 <g>
  <g id="id2" class="Master_Slide">
   <g id="bg-id2" class="Background"/>
   <g id="bo-id2" class="BackgroundObjects"/>
  </g>
 </g>
 <g class="SlideGroup">
  <g>
   <g id="container-id1">
    <g id="id1" class="Slide" clip-path="url(#presentation_clip_path)">
     <g class="Page">
      <g class="com.sun.star.drawing.ClosedBezierShape">
       <g id="id3">
        <rect class="BoundingBox" stroke="none" fill="none" x="17039" y="2578" width="7100" height="6929"/>
        <path fill="rgb(145,209,0)" stroke="none" d="M 24138,6571 C 23931,7500 23495,8225 22832,8745 22183,9252 21454,9506 20646,9506 20487,9506 20324,9496 20158,9476 19168,9352 18372,8904 17768,8131 17282,7505 17040,6820 17040,6075 17040,5928 17050,5778 17070,5624 17184,4693 17621,3931 18381,3339 19033,2832 19763,2579 20571,2579 20732,2579 20895,2590 21059,2612 21529,2671 22026,2842 22551,3128 L 21889,3772 C 21502,3591 21175,3484 20907,3453 20794,3438 20683,3431 20575,3431 20036,3431 19532,3616 19059,3984 18514,4408 18197,4983 18109,5708 18091,5831 18083,5953 18083,6071 18083,6662 18270,7198 18647,7680 19076,8231 19629,8549 20305,8635 20419,8650 20530,8658 20639,8658 21176,8658 21670,8482 22119,8131 22586,7767 22907,7248 23081,6571 L 24138,6571 Z"/>
       </g>
      </g>
      <g class="com.sun.star.drawing.PolyPolygonShape">
       <g id="id4">
        <rect class="BoundingBox" stroke="none" fill="none" x="24232" y="2639" width="5263" height="6838"/>
        <path fill="rgb(145,209,0)" stroke="none" d="M 27417,6571 L 26860,4988 26307,6571 27417,6571 Z M 27095,2639 L 29493,9476 28436,9476 27701,7381 26023,7381 25292,9476 24232,9476 26626,2639 27095,2639 Z"/>
       </g>
      </g>
      <g class="com.sun.star.drawing.PolyPolygonShape">
       <g id="id5">
        <rect class="BoundingBox" stroke="none" fill="none" x="30060" y="2639" width="4099" height="6838"/>
        <path fill="rgb(145,209,0)" stroke="none" d="M 33511,9476 L 31065,5242 31065,9476 30060,9476 30060,2677 30689,2677 33155,6950 33155,2639 34158,2639 34158,9476 33511,9476 Z"/>
       </g>
      </g>
      <g class="com.sun.star.drawing.PolyPolygonShape">
       <g id="id6">
        <rect class="BoundingBox" stroke="none" fill="none" x="35143" y="2639" width="4100" height="6838"/>
        <path fill="rgb(145,209,0)" stroke="none" d="M 38592,9476 L 36146,5242 36146,9476 35143,9476 35143,2677 35771,2677 38236,6950 38236,2639 39241,2639 39241,9476 38592,9476 Z"/>
       </g>
      </g>
      <g class="com.sun.star.drawing.PolyPolygonShape">
       <g id="id7">
        <rect class="BoundingBox" stroke="none" fill="none" x="39808" y="2639" width="5263" height="6838"/>
        <path fill="rgb(145,209,0)" stroke="none" d="M 42993,6571 L 42436,4988 41884,6571 42993,6571 Z M 42671,2639 L 45069,9476 44012,9476 43277,7381 41599,7381 40869,9476 39808,9476 42202,2639 42671,2639 Z"/>
       </g>
      </g>
      <g class="com.sun.star.drawing.ClosedBezierShape">
       <g id="id8">
        <rect class="BoundingBox" stroke="none" fill="none" x="45162" y="2578" width="7100" height="6929"/>
        <path fill="rgb(145,209,0)" stroke="none" d="M 52261,6571 C 52054,7500 51618,8225 50954,8745 50305,9252 49577,9506 48769,9506 48610,9506 48448,9496 48281,9476 47291,9352 46494,8904 45890,8131 45405,7505 45163,6820 45163,6075 45163,5928 45173,5778 45193,5624 45307,4693 45744,3931 46505,3339 47156,2832 47885,2579 48694,2579 48855,2579 49018,2590 49182,2612 49652,2671 50149,2842 50674,3128 L 50012,3772 C 49625,3591 49298,3484 49030,3453 48917,3438 48806,3431 48697,3431 48160,3431 47655,3616 47183,3984 46637,4408 46321,4983 46232,5708 46214,5831 46205,5953 46205,6071 46205,6662 46393,7198 46770,7680 47199,8231 47752,8549 48428,8635 48542,8650 48654,8658 48762,8658 49300,8658 49793,8482 50242,8131 50710,7767 51030,7248 51205,6571 L 52261,6571 Z"/>
       </g>
      </g>
      <g class="com.sun.star.drawing.ClosedBezierShape">
       <g id="id9">
        <rect class="BoundingBox" stroke="none" fill="none" x="52809" y="2638" width="4652" height="6990"/>
        <path fill="rgb(145,209,0)" stroke="none" d="M 56457,2639 L 57460,2639 57460,7624 57446,7624 C 57423,8091 57222,8539 56843,8968 56351,9407 55833,9627 55291,9627 L 54991,9627 C 54446,9627 53929,9407 53438,8968 53059,8539 52850,8036 52809,7457 L 52809,2639 53810,2639 53810,7359 C 53822,7801 53958,8169 54215,8464 54488,8704 54750,8824 55003,8824 L 55279,8824 C 55532,8824 55795,8704 56071,8464 56305,8190 56434,7851 56457,7450 L 56457,2639 Z"/>
       </g>
      </g>
      <g class="com.sun.star.drawing.ClosedBezierShape">
       <g id="id10">
        <rect class="BoundingBox" stroke="none" fill="none" x="58217" y="2639" width="4888" height="6838"/>
        <path fill="rgb(145,209,0)" stroke="none" d="M 60414,6571 L 60414,6564 C 60961,6556 61385,6403 61683,6105 61968,5820 62111,5454 62111,5007 62111,4560 61957,4182 61649,3875 61389,3615 61093,3474 60758,3454 L 59221,3454 59221,6571 60414,6571 Z M 60758,7377 L 59221,7381 59221,9476 58217,9476 58217,2639 61035,2639 61035,2658 C 61510,2683 61971,2919 62418,3366 62875,3826 63104,4373 63104,5007 63104,5641 62864,6197 62384,6677 62147,6917 61929,7072 61732,7143 L 63077,9476 61971,9476 60758,7377 Z"/>
       </g>
      </g>
      <g class="com.sun.star.drawing.PolyPolygonShape">
       <g id="id11">
        <rect class="BoundingBox" stroke="none" fill="none" x="63765" y="2639" width="4100" height="6838"/>
        <path fill="rgb(145,209,0)" stroke="none" d="M 67864,2639 L 67864,3454 64769,3454 64769,6567 65727,6567 65727,7381 64769,7381 64769,8661 67864,8661 67864,9476 63765,9476 63765,2639 67864,2639 Z"/>
       </g>
      </g>
      <g class="com.sun.star.drawing.PolyPolygonShape">
       <g id="id12">
        <rect class="BoundingBox" stroke="none" fill="none" x="14494" y="7165" width="56063" height="4765"/>
        <path fill="rgb(145,209,0)" stroke="none" d="M 69603,10975 L 15447,10975 15447,7165 14494,7165 14494,11929 70556,11929 70556,7165 69603,7165 69603,10975 Z"/>
       </g>
      </g>
      <g class="com.sun.star.drawing.PolyPolygonShape">
       <g id="id13">
        <rect class="BoundingBox" stroke="none" fill="none" x="14494" y="-46" width="56063" height="4764"/>
        <path fill="rgb(145,209,0)" stroke="none" d="M 14494,-46 L 14494,4717 15447,4717 15447,906 69603,906 69603,4717 70556,4717 70556,-46 14494,-46 Z"/>
       </g>
      </g>
      <g class="com.sun.star.drawing.ClosedBezierShape">
       <g id="id14">
        <rect class="BoundingBox" stroke="none" fill="none" x="0" y="-46" width="12265" height="11977"/>
        <path fill="rgb(145,209,0)" stroke="none" d="M 6447,-30 C 6569,-19 6691,-12 6813,3 6955,20 7097,40 7238,65 7364,86 7490,112 7614,143 7737,173 7859,209 7980,246 8105,285 8230,326 8353,371 8456,408 8558,447 8657,491 8833,568 9007,648 9180,730 9285,780 9387,836 9491,890 9520,905 9522,915 9498,939 9424,1011 9350,1083 9276,1155 8994,1429 8712,1703 8431,1977 8425,1982 8419,1986 8415,1992 8394,2019 8369,2019 8340,2005 8285,1980 8231,1954 8175,1930 8058,1879 7940,1829 7821,1781 7726,1743 7631,1708 7535,1676 7451,1647 7366,1622 7281,1597 7208,1576 7134,1555 7059,1539 6964,1518 6868,1500 6772,1485 6690,1472 6608,1465 6526,1456 6252,1428 5977,1428 5702,1456 5543,1472 5386,1497 5231,1534 5105,1564 4981,1604 4857,1641 4710,1685 4569,1745 4430,1810 4227,1905 4032,2015 3844,2139 3517,2356 3213,2602 2948,2892 2679,3186 2456,3511 2282,3869 2193,4054 2117,4244 2054,4439 2003,4595 1960,4753 1928,4914 1897,5073 1873,5233 1852,5394 1834,5521 1821,5649 1814,5778 1803,5959 1805,6142 1819,6323 1832,6485 1849,6647 1880,6806 1903,6925 1931,7043 1962,7159 1991,7269 2025,7378 2062,7485 2138,7699 2231,7906 2341,8105 2592,8563 2906,8973 3287,9330 3579,9605 3904,9834 4263,10013 4413,10087 4566,10153 4722,10208 4861,10257 5002,10302 5147,10332 5281,10360 5415,10391 5550,10411 5884,10460 6221,10480 6558,10450 6738,10434 6916,10410 7092,10370 7220,10340 7345,10301 7471,10264 7611,10222 7745,10166 7878,10106 8074,10017 8260,9913 8440,9797 8787,9570 9101,9306 9373,8992 9607,8722 9804,8427 9969,8111 10050,7956 10125,7799 10187,7637 10248,7475 10303,7312 10357,7148 10384,7069 10404,6987 10427,6906 10439,6865 10446,6859 10489,6859 11067,6859 11644,6859 12221,6859 12236,6859 12250,6864 12264,6867 L 12264,6902 C 12259,6916 12252,6929 12248,6943 12230,7016 12216,7090 12195,7162 12154,7307 12114,7451 12067,7594 12014,7754 11959,7913 11897,8069 11796,8325 11677,8574 11543,8815 11307,9242 11024,9635 10691,9992 10272,10443 9790,10815 9259,11126 9061,11242 8856,11346 8645,11438 8542,11483 8438,11523 8333,11563 8242,11596 8150,11628 8057,11657 7964,11686 7871,11715 7777,11739 7663,11767 7547,11793 7432,11815 7319,11838 7205,11858 7091,11874 6979,11890 6866,11903 6752,11909 6574,11919 6396,11927 6217,11929 6020,11931 5823,11924 5628,11902 5509,11889 5390,11877 5272,11861 5170,11847 5068,11830 4966,11811 4873,11794 4780,11777 4689,11755 4585,11731 4483,11704 4381,11675 4270,11643 4160,11611 4051,11574 3884,11516 3719,11451 3558,11379 3352,11287 3151,11184 2957,11068 2665,10895 2390,10696 2133,10474 1724,10120 1367,9720 1059,9277 866,9001 693,8712 551,8407 490,8276 433,8143 378,8010 342,7923 312,7833 283,7743 253,7652 226,7560 200,7468 180,7394 161,7320 145,7245 125,7154 107,7063 91,6972 76,6887 63,6803 52,6718 41,6621 33,6524 23,6427 22,6408 0,6115 0,5981 0,5869 21,5599 24,5575 41,5424 53,5272 74,5122 95,4970 119,4818 152,4668 188,4504 233,4343 278,4180 323,4015 382,3855 447,3697 530,3492 625,3292 733,3099 941,2722 1190,2376 1478,2057 1838,1658 2243,1312 2687,1010 2903,863 3125,727 3360,612 3515,537 3672,465 3830,396 3914,358 4002,328 4090,298 4192,263 4294,230 4397,199 4498,170 4599,143 4700,118 4789,97 4879,79 4969,64 5106,41 5243,19 5380,2 5501,-12 5622,-19 5742,-31 5757,-32 5984,-46 6083,-46 6189,-46 6430,-32 6447,-30 Z"/>
       </g>
      </g>
      <g class="com.sun.star.drawing.ClosedBezierShape">
       <g id="id15">
        <rect class="BoundingBox" stroke="none" fill="none" x="2590" y="2414" width="7254" height="7066"/>
        <path fill="rgb(145,209,0)" stroke="none" d="M 8328,3044 C 8315,3059 8308,3069 8299,3078 8047,3323 7795,3569 7542,3814 7515,3841 7504,3842 7472,3827 7325,3755 7174,3691 7020,3635 6884,3586 6746,3544 6603,3520 6366,3481 6128,3473 5889,3507 5465,3569 5097,3751 4763,4012 4546,4182 4362,4382 4217,4617 4124,4768 4051,4928 3994,5097 3948,5233 3914,5372 3891,5513 3848,5765 3835,6018 3866,6272 3885,6426 3919,6577 3967,6725 4067,7029 4223,7301 4426,7547 4611,7773 4827,7963 5081,8109 5204,8179 5333,8237 5468,8282 5772,8383 6085,8429 6405,8408 6526,8400 6645,8381 6763,8352 7221,8239 7604,8001 7924,7659 8092,7480 8223,7276 8330,7055 8399,6914 8455,6769 8503,6620 8523,6555 8539,6489 8557,6424 8560,6415 8561,6407 8564,6398 8577,6360 8582,6355 8625,6355 9013,6355 9401,6355 9790,6355 9799,6355 9807,6355 9816,6356 9841,6359 9847,6367 9841,6392 9810,6518 9781,6644 9746,6769 9716,6877 9683,6984 9643,7089 9599,7207 9548,7324 9495,7439 9366,7714 9203,7968 9008,8202 8732,8531 8403,8797 8031,9011 7858,9111 7679,9195 7491,9263 7300,9334 7104,9386 6903,9422 6655,9466 6405,9485 6153,9477 5972,9471 5791,9458 5612,9424 5513,9405 5413,9391 5316,9366 5199,9336 5084,9300 4969,9263 4805,9210 4648,9138 4495,9059 4238,8925 4003,8760 3788,8567 3487,8297 3239,7986 3037,7636 2953,7490 2880,7339 2818,7183 2757,7026 2709,6865 2671,6701 2620,6474 2596,6244 2592,6011 2589,5856 2599,5701 2620,5548 2637,5428 2655,5308 2678,5189 2697,5095 2720,5002 2750,4911 2787,4795 2830,4680 2876,4567 2952,4379 3050,4202 3163,4034 3401,3679 3699,3381 4041,3128 4227,2991 4422,2870 4630,2769 4789,2692 4953,2627 5123,2574 5310,2515 5502,2473 5696,2447 5980,2410 6264,2402 6549,2435 6679,2450 6810,2467 6939,2491 7044,2511 7148,2540 7251,2572 7368,2607 7483,2648 7598,2691 7749,2746 7895,2814 8038,2887 8119,2929 8200,2972 8280,3015 8294,3023 8308,3032 8328,3044 Z"/>
       </g>
      </g>
     </g>
    </g>
   </g>
  </g>
 </g>
</svg>