<svg id="Layer_1" data-name="Layer 1" xmlns="http://www.w3.org/2000/svg" viewBox="0 0 259 63"><defs><style>.cls-1{fill:none;}.cls-2{fill:#144003;}.cls-3{fill:#fff;}.cls-4{fill:#5e3c32;}.cls-5{fill:#71c200;}.cls-6{fill:#231f20;}.cls-7{fill:#708a21;}</style></defs><title>logo</title><path class="cls-1" d="M13.64,34.12a23.13,23.13,0,0,1,7.68-13.61,27.77,27.77,0,0,1,11.21-6h0a27.77,27.77,0,0,0-11.21,6A23.13,23.13,0,0,0,13.64,34.12Z" transform="translate(-7 -4.5)"/><path class="cls-2" d="M23.58,37.6v0h0Z" transform="translate(-7 -4.5)"/><path class="cls-3" d="M27,25.93h0a22.13,22.13,0,0,0-3.38,11.64h0A22.13,22.13,0,0,1,27,25.93Z" transform="translate(-7 -4.5)"/><path class="cls-1" d="M33.05,14.37l-.52.14a27.77,27.77,0,0,0-11.21,6,23.13,23.13,0,0,0-7.68,13.61,23.13,23.13,0,0,1,7.68-13.61,27.77,27.77,0,0,1,11.21-6l.52-.14a30.43,30.43,0,0,1,7.3-.93h0A30.43,30.43,0,0,0,33.05,14.37Z" transform="translate(-7 -4.5)"/><path class="cls-2" d="M39.26,15.71a27.26,27.26,0,0,0-7.72,4.8A24.94,24.94,0,0,0,27,25.93h0a24.94,24.94,0,0,1,4.58-5.42A27.26,27.26,0,0,1,39.26,15.71Z" transform="translate(-7 -4.5)"/><path class="cls-4" d="M82.59,26.54h8.34V54.91H82.59v-3a17.05,17.05,0,0,1-4.89,2.86,15.85,15.85,0,0,1-5.33.87,16,16,0,0,1-11.13-4.26,13.76,13.76,0,0,1-4.7-10.6A14,14,0,0,1,61.09,30a15.68,15.68,0,0,1,11-4.2,15.94,15.94,0,0,1,5.61,1,15.38,15.38,0,0,1,4.85,2.89Zm-8.76,5.84a9.17,9.17,0,0,0-6.42,2.33,7.75,7.75,0,0,0-2.56,6,7.84,7.84,0,0,0,2.6,6,9.17,9.17,0,0,0,6.41,2.37,9.38,9.38,0,0,0,6.51-2.33A7.88,7.88,0,0,0,83,40.67a7.64,7.64,0,0,0-2.59-6A9.43,9.43,0,0,0,73.83,32.38Z" transform="translate(-7 -4.5)"/><path class="cls-4" d="M97.4,26.54h7.15v3.57a8,8,0,0,1,3.08-3.21,8.4,8.4,0,0,1,4.22-1.09,8.74,8.74,0,0,1,3.38.73l-2.59,6.13a6.45,6.45,0,0,0-2.41-.63,3.88,3.88,0,0,0-3.26,2q-1.32,2-1.32,8l0,1.39V54.91H97.4Z" transform="translate(-7 -4.5)"/><path class="cls-4" d="M120.37,16.08h8.33V26.54h5v6.13h-5V54.91h-8.33V32.67h-4.28V26.54h4.28Z" transform="translate(-7 -4.5)"/><path class="cls-4" d="M138.14,15.59h8.28V29.41a19.45,19.45,0,0,1,4.91-2.7,14.56,14.56,0,0,1,5-.9,12.27,12.27,0,0,1,8.33,2.92c1.94,1.69,2.9,4.16,2.9,7.43V54.91h-8.21V42.47a26.11,26.11,0,0,0-.55-6.67,4.56,4.56,0,0,0-1.88-2.61,5.93,5.93,0,0,0-3.28-.86,6.85,6.85,0,0,0-4.35,1.43,7.42,7.42,0,0,0-2.52,3.91,28.28,28.28,0,0,0-.36,5.84v11.4h-8.28Z" transform="translate(-7 -4.5)"/><path class="cls-5" d="M200.15,30.53a18.37,18.37,0,0,0-5.09-3.2,19.12,19.12,0,0,0-7.29-1.39A20.25,20.25,0,0,0,178.83,28a16.57,16.57,0,0,0-6.63,5.64,13.53,13.53,0,0,0-2.4,7.67,13.33,13.33,0,0,0,2.3,7.56,16.07,16.07,0,0,0,6.54,5.48,21.09,21.09,0,0,0,16.74.57,17.23,17.23,0,0,0,4.77-2.84c0,2.84-.43,4.92-1.19,6.18a8.89,8.89,0,0,1-4,3.21,16.8,16.8,0,0,1-7,1.31,17.17,17.17,0,0,1-7.06-1.28,10.81,10.81,0,0,1-4.58-3.91l-.23-.34h-6.32l.51,1a17.32,17.32,0,0,0,4.11,5.3,17.07,17.07,0,0,0,5.82,2.92,27.6,27.6,0,0,0,8,1.07,22.73,22.73,0,0,0,10.39-2.21,12.74,12.74,0,0,0,6.17-6.36C205.58,57,206,54,206,50V26.67h-5.86Zm-1.33,5.37a9.67,9.67,0,0,1,1.55,5.4A9.21,9.21,0,0,1,197,48.77a13.42,13.42,0,0,1-8.92,2.83,13.57,13.57,0,0,1-9-2.86,9,9,0,0,1-3.43-7.23,9.57,9.57,0,0,1,1.67-5.39,11.28,11.28,0,0,1,4.59-3.9,14.59,14.59,0,0,1,6.36-1.41,13.85,13.85,0,0,1,6.11,1.37A10.51,10.51,0,0,1,198.82,35.9Z" transform="translate(-7 -4.5)"/><rect class="cls-5" x="205.95" y="22.17" width="5.86" height="29.72"/><path class="cls-5" d="M215.86,15a4.51,4.51,0,0,0-3,1.08,3.31,3.31,0,0,0,0,5.21,4.8,4.8,0,0,0,6.07,0,3.31,3.31,0,0,0,0-5.21A4.53,4.53,0,0,0,215.86,15Z" transform="translate(-7 -4.5)"/><path class="cls-5" d="M235.6,15a9.26,9.26,0,0,0-4.2.89,5.57,5.57,0,0,0-2.56,2.41,10.93,10.93,0,0,0-.72,4.62v3.76h-4.36v4.5h4.36V56.39H234l0-25.22h6.93v-4.5H234V23.51a11.12,11.12,0,0,1,.17-2.77,1.45,1.45,0,0,1,.71-.63,3.57,3.57,0,0,1,1.66-.33,11.14,11.14,0,0,1,3.72.81l1.1.4v-5.1l-.57-.14A21.64,21.64,0,0,0,235.6,15Z" transform="translate(-7 -4.5)"/><polygon class="cls-5" points="248.33 22.17 248.33 11.64 242.47 11.64 242.47 22.17 236.64 22.17 236.64 26.68 242.47 26.68 242.47 51.89 248.33 51.89 248.33 26.68 255.11 26.68 255.11 22.17 248.33 22.17"/><path class="cls-2" d="M18.38,64.52a4.28,4.28,0,0,1-3.27,1.41,4.26,4.26,0,0,1-2.94-1A3.39,3.39,0,0,1,11,62.27a3.51,3.51,0,0,1,.52-1.87A3.7,3.7,0,0,1,13,59.08a4.42,4.42,0,0,1,2.06-.5,4.56,4.56,0,0,1,1.87.38,4,4,0,0,1,1.46,1.1l0,0,.83-.58,0,0a4.67,4.67,0,0,0-1.76-1.36A5.67,5.67,0,0,0,15,57.64,5.28,5.28,0,0,0,11.37,59,4.2,4.2,0,0,0,9.9,62.19a4.44,4.44,0,0,0,1.21,3.12,5.17,5.17,0,0,0,3.94,1.53,6,6,0,0,0,2.38-.45,5,5,0,0,0,1.78-1.29l0,0-.82-.57Z" transform="translate(-7 -4.5)"/><path class="cls-2" d="M25.59,57.86H25.3l-4.47,8.7,0,.06H22l1.47-2.85h4l1.47,2.83v0H30l-4.42-8.73Zm1.38,5H23.91l1.53-3Z" transform="translate(-7 -4.5)"/><polygon class="cls-2" points="31.5 59.93 25.32 53.38 25.31 53.36 25.02 53.36 25.02 62.13 26.1 62.13 26.1 55.63 32.23 62.11 32.24 62.13 32.53 62.13 32.53 53.36 31.5 53.36 31.5 59.93"/><polygon class="cls-2" points="41.86 59.93 35.68 53.38 35.67 53.36 35.38 53.36 35.38 62.13 36.46 62.13 36.46 55.63 42.59 62.11 42.6 62.13 42.89 62.13 42.89 53.36 41.86 53.36 41.86 59.93"/><path class="cls-2" d="M56.67,57.86h-.3l-4.46,8.7,0,.06H53l1.47-2.85h4L60,66.6v0h1.13l-4.42-8.73Zm1.38,5H55l1.54-3Z" transform="translate(-7 -4.5)"/><path class="cls-2" d="M68,62.36a3.66,3.66,0,0,0-1-.52,2.19,2.19,0,0,0,.82-.74A1.92,1.92,0,0,0,68.11,60a2,2,0,0,0-.36-1.15,2.11,2.11,0,0,0-1-.77A4.77,4.77,0,0,0,65,57.86H63.12v8.76h2.64A3.32,3.32,0,0,0,68,65.89a2.31,2.31,0,0,0,.85-1.8,2.13,2.13,0,0,0-.23-1A2.28,2.28,0,0,0,68,62.36Zm-1.25-1.55a1.61,1.61,0,0,1-.71.51,4.45,4.45,0,0,1-1.42.17h-.49V58.8h1a2.35,2.35,0,0,1,1.4.33A1,1,0,0,1,67,60,1.33,1.33,0,0,1,66.77,60.81Zm-2.62,1.64h.48a8.93,8.93,0,0,1,1.66.1,2.11,2.11,0,0,1,1.1.58,1.37,1.37,0,0,1,.4,1,1.34,1.34,0,0,1-.28.83,1.71,1.71,0,0,1-.75.57,4.59,4.59,0,0,1-1.5.18H64.15Z" transform="translate(-7 -4.5)"/><rect class="cls-2" x="64.15" y="53.36" width="1.05" height="8.77"/><path class="cls-2" d="M77.4,61.64a12.41,12.41,0,0,1-1.21-.86,1.8,1.8,0,0,1-.46-.56,1.3,1.3,0,0,1-.13-.54,1,1,0,0,1,.35-.75,1.34,1.34,0,0,1,.9-.3,1.55,1.55,0,0,1,.79.2,3.42,3.42,0,0,1,.89.84l0,0,.85-.6,0,0A4.31,4.31,0,0,0,78.14,58a2.77,2.77,0,0,0-1.27-.31,2.52,2.52,0,0,0-1.19.28,2,2,0,0,0-.85.75,1.92,1.92,0,0,0-.3,1A2.09,2.09,0,0,0,75,61.07a8,8,0,0,0,1.47,1.2,7.42,7.42,0,0,1,1.61,1.38,1.4,1.4,0,0,1,.31.83,1.33,1.33,0,0,1-.21.71,1.53,1.53,0,0,1-.62.52,2,2,0,0,1-.86.2,2.32,2.32,0,0,1-1.91-1.41l0,0-.89.49,0,0a3.9,3.9,0,0,0,1.3,1.43,3,3,0,0,0,1.59.43,2.82,2.82,0,0,0,1.93-.71,2.2,2.2,0,0,0,.79-1.67,2.32,2.32,0,0,0-.46-1.32A6.92,6.92,0,0,0,77.4,61.64Z" transform="translate(-7 -4.5)"/><path class="cls-2" d="M91.47,58.17a11.25,11.25,0,0,0-3.08-.31h-2v8.76h3.05a6.59,6.59,0,0,0,2.76-.47,3.88,3.88,0,0,0,1.61-1.48,4.72,4.72,0,0,0-.16-4.94A4.1,4.1,0,0,0,91.47,58.17Zm-4.08.63H88a12.23,12.23,0,0,1,2.9.24,3.31,3.31,0,0,1,1.81,1.2,3.52,3.52,0,0,1,.65,2.13,3.32,3.32,0,0,1-.6,2,3,3,0,0,1-1.64,1.12,10.74,10.74,0,0,1-2.69.23h-1Z" transform="translate(-7 -4.5)"/><rect class="cls-2" x="89.67" y="53.36" width="1.04" height="8.77"/><path class="cls-2" d="M102.91,61.64c-.68-.46-1.09-.75-1.21-.86a2.14,2.14,0,0,1-.46-.56,1.29,1.29,0,0,1-.12-.54,1,1,0,0,1,.35-.75,1.31,1.31,0,0,1,.89-.3,1.52,1.52,0,0,1,.79.2,3.42,3.42,0,0,1,.89.84l0,0,.85-.6,0,0A4.46,4.46,0,0,0,103.65,58a2.77,2.77,0,0,0-1.27-.31,2.57,2.57,0,0,0-1.19.28,2.07,2.07,0,0,0-.85.75,1.92,1.92,0,0,0-.3,1,2.09,2.09,0,0,0,.51,1.35,8.2,8.2,0,0,0,1.48,1.2,7.56,7.56,0,0,1,1.6,1.38,1.28,1.28,0,0,1,.1,1.54,1.5,1.5,0,0,1-.61.52,2,2,0,0,1-.87.2,2.32,2.32,0,0,1-1.9-1.41l0,0-.89.49,0,0a4,4,0,0,0,1.31,1.43,3,3,0,0,0,1.58.43,2.79,2.79,0,0,0,1.93-.71,2.16,2.16,0,0,0,.79-1.67,2.25,2.25,0,0,0-.46-1.32A6.55,6.55,0,0,0,102.91,61.64Z" transform="translate(-7 -4.5)"/><path class="cls-2" d="M111.72,58a11.56,11.56,0,0,0-2.19-.13H107.6v8.76h1.05v-4h.62a13.9,13.9,0,0,0,2.41-.14,2.58,2.58,0,0,0,1.4-.78,2.1,2.1,0,0,0,.51-1.45,2.07,2.07,0,0,0-.52-1.46A2.48,2.48,0,0,0,111.72,58Zm-1.53,3.68-1.54,0V58.8h1.61a4.29,4.29,0,0,1,1.35.15,1.34,1.34,0,0,1,.66.49,1.36,1.36,0,0,1,0,1.57,1.43,1.43,0,0,1-.68.5A4.33,4.33,0,0,1,110.19,61.67Z" transform="translate(-7 -4.5)"/><polygon class="cls-2" points="109.03 62.13 114.5 62.13 114.5 61.19 110.08 61.19 110.08 57.87 114.5 57.87 114.5 56.93 110.08 56.93 110.08 54.3 114.54 54.3 114.54 53.36 109.03 53.36 109.03 62.13"/><polygon class="cls-2" points="123.2 59.93 117.02 53.38 117 53.36 116.72 53.36 116.72 62.13 117.8 62.13 117.8 55.63 123.93 62.11 123.94 62.13 124.23 62.13 124.23 53.36 123.2 53.36 123.2 59.93"/><path class="cls-2" d="M136.57,61.64c-.68-.46-1.09-.75-1.21-.86a1.8,1.8,0,0,1-.46-.56,1.26,1.26,0,0,1-.13-.54,1,1,0,0,1,.35-.75,1.32,1.32,0,0,1,.9-.3,1.55,1.55,0,0,1,.79.2,3.42,3.42,0,0,1,.89.84l0,0,.85-.6,0,0A4.29,4.29,0,0,0,137.31,58a2.77,2.77,0,0,0-1.27-.31,2.52,2.52,0,0,0-1.19.28,2,2,0,0,0-.85.75,1.92,1.92,0,0,0-.3,1,2.09,2.09,0,0,0,.51,1.35,8,8,0,0,0,1.47,1.2,7.15,7.15,0,0,1,1.61,1.38,1.4,1.4,0,0,1,.31.83,1.31,1.31,0,0,1-.21.71,1.53,1.53,0,0,1-.62.52,2,2,0,0,1-.86.2A2.32,2.32,0,0,1,134,64.5l0,0-.89.49,0,0a3.9,3.9,0,0,0,1.3,1.43,3,3,0,0,0,1.59.43,2.82,2.82,0,0,0,1.93-.71,2.2,2.2,0,0,0,.79-1.67,2.32,2.32,0,0,0-.46-1.32A6.92,6.92,0,0,0,136.57,61.64Z" transform="translate(-7 -4.5)"/><path class="cls-2" d="M145.2,57.86h-.3l-4.46,8.7,0,.06h1.16L143,63.77h4l1.47,2.83v0h1.13l-4.43-8.73Zm1.38,5h-3.07l1.54-3Z" transform="translate(-7 -4.5)"/><path class="cls-2" d="M156.25,62.31a2.25,2.25,0,0,0,1.05-.83,2.18,2.18,0,0,0,.37-1.27,2.15,2.15,0,0,0-.53-1.46,2.58,2.58,0,0,0-1.4-.77,12.28,12.28,0,0,0-2.14-.12h-1.93v8.76h1.05v-4h.45l3.38,4h1.31l-3.39-4A5,5,0,0,0,156.25,62.31Zm-2-.64h-1.57V58.8h1.61a4.39,4.39,0,0,1,1.37.15,1.35,1.35,0,0,1,.64.49,1.27,1.27,0,0,1,.25.77,1.39,1.39,0,0,1-.24.79,1.42,1.42,0,0,1-.68.51A4.31,4.31,0,0,1,154.29,61.67Z" transform="translate(-7 -4.5)"/><polygon class="cls-2" points="158.39 53.36 156.04 56.89 153.66 53.36 152.46 53.36 155.54 57.95 155.54 62.13 156.57 62.13 156.57 57.95 159.59 53.36 158.39 53.36"/><path class="cls-6" d="M266,53.1c0,1.9-1.79,3.41-4.07,3.41s-4.1-1.51-4.1-3.41,1.82-3.4,4.12-3.4S266,51.2,266,53.1Zm-7.15,0a2.88,2.88,0,0,0,3.1,2.71,2.83,2.83,0,0,0,3-2.69,3.09,3.09,0,0,0-6.13,0Zm2.45,1.76h-.92v-3.4a12.91,12.91,0,0,1,1.53-.1,2.32,2.32,0,0,1,1.35.27.81.81,0,0,1,.41.72c0,.42-.36.69-.82.81v0a1,1,0,0,1,.7.83,2.84,2.84,0,0,0,.29.83h-1a2.56,2.56,0,0,1-.31-.83c-.07-.35-.32-.52-.82-.52h-.44Zm0-1.91h.44c.51,0,.92-.14.92-.49s-.27-.52-.85-.52a2.72,2.72,0,0,0-.51,0Z" transform="translate(-7 -4.5)"/><path class="cls-1" d="M50.45,46.42s0,0,0,.06a17.44,17.44,0,0,0,3.51-13.83A18.78,18.78,0,0,1,50.45,46.42Z" transform="translate(-7 -4.5)"/><path class="cls-1" d="M23.58,37.6A21.84,21.84,0,0,0,25,45.38h0A21.84,21.84,0,0,1,23.58,37.6Z" transform="translate(-7 -4.5)"/><path class="cls-3" d="M28.91,52a23.71,23.71,0,0,1-1.44-1.94A23.71,23.71,0,0,0,28.91,52Z" transform="translate(-7 -4.5)"/><path class="cls-3" d="M25,45.38a22.25,22.25,0,0,0,2.32,4.49A22.25,22.25,0,0,1,25,45.38Z" transform="translate(-7 -4.5)"/><path class="cls-3" d="M50,47l.39-.49s0,0,0-.06Z" transform="translate(-7 -4.5)"/><path class="cls-3" d="M27.2,42.18H52.39c1.32-7.26-4.1-15.4-14.22-17.22a21.1,21.1,0,0,0-11.21,1,22.06,22.06,0,0,0-3.37,11.59A22.06,22.06,0,0,1,27,25.93c-5.4,2-9.48,6.27-10.54,11.58-1.74,8.71,5.32,16.68,15.29,17.93l.72,0a25.17,25.17,0,0,0,18.29-8.75l.43-.57c.14-.32.27-.64.38-1a1.42,1.42,0,0,0-.2,0c-2.33,0-4.67,0-7,0a1.12,1.12,0,0,0-.69.4,11.86,11.86,0,0,1-10.89,4A11.43,11.43,0,0,1,25,45.38a8.31,8.31,0,0,1-1.68-6.9,9.32,9.32,0,0,1,.23-.91h0c1-3.29,3.53-5.54,7.46-6.6a12.14,12.14,0,0,1,11.27,2.34,8.41,8.41,0,0,1,2.43,3.13L27.14,42Z" transform="translate(-7 -4.5)"/><path class="cls-5" d="M31,4.5h0s-10.62,9.41-15.72,14a1.09,1.09,0,0,0-.17.13l-.29.25-1.72,1.54A21.06,21.06,0,0,0,9,26.05,19.5,19.5,0,0,0,7.14,36.88a19.51,19.51,0,0,0,1.42,5.28A22,22,0,0,0,19.58,53a22.51,22.51,0,0,1-6.22-15,21.16,21.16,0,0,1,.28-3.89,23.13,23.13,0,0,1,7.68-13.61,27.77,27.77,0,0,1,11.21-6l.52-.14a30.43,30.43,0,0,1,7.3-.93H41l1.33,1.18,2.34,2.09C39.24,11.84,31,4.5,31,4.5Z" transform="translate(-7 -4.5)"/><path class="cls-7" d="M16.42,37.51C17.48,32.2,21.56,28,27,25.93c.17-.27.35-.53.54-.8-.18.27-.37.53-.54.8q.51-.2,1.05-.36a26.83,26.83,0,0,1,16.63-8.91l-2.29-2L41,13.44h-.67a30.43,30.43,0,0,0-7.3.93l-.52.14a27.77,27.77,0,0,0-11.21,6,23.13,23.13,0,0,0-7.68,13.61A21.16,21.16,0,0,0,13.36,38a22.51,22.51,0,0,0,6.22,15A27.09,27.09,0,0,0,31,55.46l.68,0C21.74,54.19,14.68,46.22,16.42,37.51Z" transform="translate(-7 -4.5)"/><path class="cls-4" d="M54.76,31.84a19.43,19.43,0,0,0-1.15-4.32,18,18,0,0,0-.94-2.05A20.18,20.18,0,0,0,51,22.79a22.21,22.21,0,0,0-3-3.3c-.43-.38-.88-.73-1.29-1.09l-2-1.69,0-.05A26.83,26.83,0,0,0,28,25.57,21.29,21.29,0,0,1,38.17,25c10.12,1.82,15.54,10,14.22,17.22H27.2L27.14,42l17.6-5.6a8.41,8.41,0,0,0-2.43-3.13A12.14,12.14,0,0,0,31,31c-3.93,1.06-6.46,3.31-7.46,6.6a9.32,9.32,0,0,0-.23.91A8.31,8.31,0,0,0,25,45.38a11.43,11.43,0,0,0,7.71,4.12,11.86,11.86,0,0,0,10.89-4,1.12,1.12,0,0,1,.69-.4c2.34,0,4.68,0,7,0a.67.67,0,0,1,.2,0c-.11.32-.24.68-.38,1A19.51,19.51,0,0,0,54.76,31.84Z" transform="translate(-7 -4.5)"/></svg>