<?xml version="1.0" encoding="utf-8"?>
<!-- Generator: Adobe Illustrator 21.1.0, SVG Export Plug-In . SVG Version: 6.00 Build 0)  -->
<svg version="1.1" id="Layer_1" xmlns="http://www.w3.org/2000/svg" xmlns:xlink="http://www.w3.org/1999/xlink" x="0px" y="0px"
	 viewBox="0 0 1062.1 99.3" style="enable-background:new 0 0 1062.1 99.3;" xml:space="preserve">
<style type="text/css">
	.st0{fill:#1D1D1B;}
	.st1{fill:#FFFFFF;}
	.st2{fill:#BC1F39;}
</style>
<g>
	<polygon class="st0" points="338.1,90.1 348.7,96.8 350.1,89.7 	"/>
	<polygon class="st0" points="377.7,90.1 388.3,96.8 392.2,89.7 	"/>
	<polygon class="st0" points="441.9,81.9 452.1,89 456,81.9 	"/>
	<polygon class="st0" points="482.8,81.9 493,89 495.6,81.9 	"/>
	<polygon class="st0" points="461.2,9.9 470.9,17.4 460.5,25.4 	"/>
	<polygon class="st0" points="502.1,9.9 511.8,17.4 501.4,25.4 	"/>
	<polygon class="st0" points="542.5,10.3 552.7,17.4 543.2,23.7 	"/>
	<polygon class="st0" points="523.7,81.9 533.8,89 552.7,89 542.5,81.9 	"/>
	<polygon class="st0" points="547.6,82.1 557.8,89.1 576.6,89.1 566.5,82.1 	"/>
	<polygon class="st0" points="581.5,82.1 591.7,89.1 592.8,81.9 	"/>
	<path class="st0" d="M411.4,96.8h-23.1c0-5-1.6-9.6-4.8-13.8c-3.2-4.2-7.2-7.1-11.9-8.6v22.4h-22.8V9.6h24c8.6,0,16,3.1,22.2,9.3
		c6.2,6.2,9.3,13.6,9.3,22.2c0,8-2.8,15.1-8.3,21.3C406.2,72,411.4,83.5,411.4,96.8 M381.4,41c0-2.6-1-4.7-2.9-6.2
		c-1.9-1.6-4.3-2.3-6.9-2.3v17.2c2.7,0,5-0.8,6.9-2.4C380.4,45.7,381.4,43.6,381.4,41"/>
	<path class="st0" d="M464.3,53.2c0,9.9-3.5,18.3-10.6,25.3c-7,7-15.4,10.5-25.2,10.5c-9.9,0-18.4-3.5-25.4-10.5
		c-7-7-10.5-15.4-10.5-25.3c0-9.8,3.5-18.2,10.5-25.2c7-7,15.5-10.5,25.4-10.5c9.8,0,18.2,3.5,25.2,10.5
		C460.8,35,464.3,43.4,464.3,53.2 M445.4,53.1c0-4.7-1.7-8.6-4.9-11.9c-3.3-3.3-7.3-4.9-12-4.9c-4.7,0-8.7,1.7-12.1,4.9
		c-3.4,3.3-5,7.3-5,11.9c0,4.7,1.7,8.7,5,12c3.3,3.3,7.4,5,12.1,5c4.7,0,8.7-1.7,12-5C443.8,61.8,445.4,57.8,445.4,53.1"/>
	<polygon class="st0" points="489.3,89 452.1,89 452.1,17.4 470.9,17.4 470.9,70.1 489.3,70.1 	"/>
	<polygon class="st0" points="530.2,89 493,89 493,17.4 511.8,17.4 511.8,70.1 530.2,70.1 	"/>
	<rect x="533.8" y="17.4" class="st0" width="18.9" height="71.6"/>
	<path class="st0" d="M610.5,89.1h-18.8V60.5c0-5-1.4-9.5-4.2-13.5c-2.8-4-6.4-6.9-10.9-8.9v51h-18.8V17.4h9.4
		c8.9,0,17.1,2.5,24.5,7.5v-7.5h18.8V89.1z"/>
	<path class="st0" d="M660.9,89.6c-10.6,4.8-19,7.2-25.4,7.2c-12.1,0-22.4-4.3-30.9-12.8c-8.5-8.5-12.8-18.8-12.8-30.9
		c0-12,4.3-22.2,12.8-30.8c8.5-8.6,18.8-12.9,30.9-12.9c7.4,0,14,0.7,19.9,2.2v23.6c-6-1.8-12.6-2.7-19.9-2.7c-5.7,0-10.6,2-14.6,6
		c-4,4-6,8.9-6,14.6c0,5.7,2,10.6,6,14.6c4,4.1,8.9,6.1,14.6,6.1h1.2h1.2V52h23V89.6z"/>
	<polygon class="st0" points="479.1,62.4 489.3,70.1 479.1,74.4 	"/>
	<polygon class="st0" points="520,62.4 530.2,70.1 520,74.4 	"/>
	<polygon class="st0" points="645.6,4.2 655.4,11.6 655.4,35.2 645.2,28.2 	"/>
	<polygon class="st0" points="651.2,44.5 660.9,52 660.9,89.6 650.7,82.6 	"/>
	<path class="st1" d="M402.2,89.6H379c0-5-1.6-9.6-4.7-13.8c-3.2-4.2-7.2-7.1-12-8.6v22.4h-22.8V2.4h24c8.6,0,16,3.1,22.2,9.3
		c6.2,6.2,9.3,13.6,9.3,22.2c0,8-2.8,15.1-8.3,21.2C397,64.8,402.2,76.3,402.2,89.6 M372.2,33.8c0-2.6-1-4.7-2.9-6.3
		c-2-1.6-4.3-2.4-6.9-2.4v17.2c2.7,0,5-0.8,6.9-2.3C371.2,38.5,372.2,36.4,372.2,33.8"/>
	<path class="st0" d="M403.4,90.8h-25.5v-1.2c0-4.7-1.5-9.1-4.5-13.1c-2.7-3.5-5.9-6.1-9.8-7.6v21.9h-25.2V1.2h25.2
		c8.9,0,16.7,3.2,23.1,9.6c6.4,6.4,9.6,14.2,9.6,23.1c0,7.9-2.6,15-7.9,21.2c10,9.7,15,21.3,15,34.5V90.8z M380.2,88.4H401
		c-0.3-12.3-5.4-23.2-15.1-32.3l-0.9-0.8l0.8-0.9c5.3-5.9,8-12.8,8-20.4c0-8.3-3-15.5-8.9-21.4c-5.9-5.9-13.1-8.9-21.4-8.9h-22.8
		v84.8h20.4V65.5l1.6,0.5c5,1.6,9.2,4.6,12.5,9C378.3,79.1,380,83.6,380.2,88.4 M362.4,43.6h-1.2V24h1.2c2.9,0,5.5,0.9,7.7,2.6
		c2.2,1.8,3.4,4.2,3.4,7.2c0,3-1.1,5.4-3.4,7.2C367.9,42.7,365.3,43.6,362.4,43.6 M363.6,26.5v14.7c1.9-0.2,3.5-0.9,5-2
		c1.7-1.3,2.5-3.1,2.5-5.3c0-2.3-0.8-4-2.5-5.3C367.1,27.3,365.4,26.7,363.6,26.5"/>
	<path class="st1" d="M455.1,46c0,9.9-3.5,18.4-10.5,25.3c-7,7-15.4,10.5-25.2,10.5c-9.9,0-18.4-3.5-25.4-10.5
		c-7-7-10.5-15.4-10.5-25.3c0-9.8,3.5-18.2,10.5-25.2c7-7,15.5-10.5,25.4-10.5c9.8,0,18.2,3.5,25.2,10.5
		C451.5,27.8,455.1,36.2,455.1,46 M436.2,45.9c0-4.7-1.7-8.6-5-11.9c-3.3-3.3-7.3-4.9-12-4.9c-4.7,0-8.7,1.6-12.1,4.9
		c-3.4,3.3-5,7.3-5,11.9c0,4.7,1.7,8.7,5,12c3.3,3.3,7.4,5,12.1,5c4.7,0,8.7-1.7,12-5C434.6,54.6,436.2,50.6,436.2,45.9"/>
	<path class="st0" d="M419.3,83c-10.2,0-19-3.6-26.2-10.8c-7.2-7.2-10.9-16-10.9-26.2c0-10.1,3.7-18.8,10.9-26.1
		C400.3,12.7,409.1,9,419.3,9c10.1,0,18.9,3.7,26.1,10.9c7.2,7.3,10.9,16,10.9,26.1c0,10.2-3.7,19-10.9,26.2
		C438.1,79.3,429.4,83,419.3,83 M419.3,11.4c-9.5,0-17.8,3.4-24.5,10.2c-6.9,6.9-10.2,14.9-10.2,24.4s3.4,17.8,10.2,24.5
		c6.8,6.7,15,10.1,24.6,10.1c9.4,0,17.6-3.4,24.4-10.1c6.8-6.7,10.2-15,10.2-24.5c0-9.4-3.4-17.6-10.2-24.4
		C436.9,14.8,428.7,11.4,419.3,11.4 M419.3,64.1c-5,0-9.3-1.8-12.9-5.4c-3.6-3.6-5.4-7.9-5.4-12.9c0-5,1.8-9.3,5.4-12.8
		c3.6-3.5,7.9-5.3,12.9-5.3c5,0,9.3,1.8,12.8,5.3c3.5,3.5,5.3,7.8,5.3,12.8c0,5-1.8,9.3-5.3,12.9C428.6,62.3,424.3,64.1,419.3,64.1
		 M419.3,30.3c-4.3,0-8.1,1.5-11.2,4.6c-3.1,3.1-4.7,6.7-4.7,11.1c0,4.3,1.6,8.1,4.7,11.2c3.1,3.1,6.9,4.7,11.2,4.7
		c4.4,0,8-1.5,11.1-4.6c3.1-3.1,4.6-6.9,4.6-11.2c0-4.4-1.5-8-4.6-11.1C427.3,31.8,423.7,30.3,419.3,30.3"/>
	<polygon class="st1" points="480.1,81.8 442.9,81.8 442.9,10.2 461.7,10.2 461.7,62.9 480.1,62.9 	"/>
	<path class="st0" d="M481.3,83h-39.6V9h21.3v52.7h18.4V83z M444.1,80.6h34.8V64.1h-18.4V11.4h-16.4V80.6z"/>
	<polygon class="st1" points="521,81.8 483.8,81.8 483.8,10.2 502.6,10.2 502.6,62.9 521,62.9 	"/>
	<path class="st0" d="M522.2,83h-39.6V9h21.3v52.7h18.4V83z M485,80.6h34.8V64.1h-18.4V11.4H485V80.6z"/>
	<rect x="524.6" y="10.2" class="st1" width="18.8" height="71.6"/>
	<path class="st0" d="M544.7,83h-21.3V9h21.3V83z M525.8,80.6h16.4V11.4h-16.4V80.6z"/>
	<path class="st1" d="M601.3,81.9h-18.9V53.3c0-5-1.4-9.5-4.2-13.5c-2.8-4-6.4-7-10.9-8.9v51h-18.8V10.2h9.4c9,0,17.1,2.5,24.5,7.5
		v-7.5h18.9V81.9z"/>
	<path class="st0" d="M602.5,83.1h-21.3V53.3c0-4.7-1.3-9-3.9-12.8c-2.3-3.3-5.2-5.9-8.7-7.7v50.3h-21.3V9H558
		c8.4,0,16.2,2.2,23.2,6.5V9h21.3V83.1z M583.7,80.7h16.4V11.4h-16.4V20l-1.9-1.3c-7.1-4.9-15.1-7.3-23.8-7.3h-8.2v69.3h16.4V29.1
		l1.7,0.7c4.7,2,8.5,5.1,11.4,9.3c2.9,4.2,4.4,9,4.4,14.2V80.7z"/>
	<path class="st1" d="M651.6,82.5c-10.5,4.8-19,7.2-25.4,7.2c-12.1,0-22.4-4.2-30.9-12.8c-8.5-8.5-12.8-18.8-12.8-30.9
		c0-12,4.3-22.2,12.8-30.8c8.5-8.6,18.8-12.9,30.9-12.9c7.4,0,14.1,0.7,19.9,2.1V28c-6-1.8-12.6-2.7-19.9-2.7c-5.7,0-10.6,2-14.6,6
		c-4,4-6.1,8.9-6.1,14.6c0,5.7,2,10.6,6.1,14.6c4,4.1,8.9,6.1,14.6,6.1h1.2h1.2V44.8h23V82.5z"/>
	<path class="st0" d="M626.3,90.9c-12.4,0-23.1-4.4-31.8-13.1c-8.7-8.7-13.1-19.4-13.1-31.8c0-12.2,4.4-22.9,13.1-31.7
		c8.7-8.8,19.4-13.2,31.8-13.2c7.5,0,14.3,0.7,20.2,2.2l0.9,0.2v26.2l-1.6-0.5c-5.9-1.8-12.4-2.7-19.5-2.7c-5.4,0-10,1.9-13.8,5.7
		c-3.8,3.8-5.7,8.3-5.7,13.7c0,5.4,1.9,9.9,5.7,13.8c3.8,3.8,8.4,5.8,13.8,5.8h1.2V43.6h25.4v39.6l-0.7,0.3
		C641.5,88.4,632.8,90.9,626.3,90.9 M626.3,3.5c-11.7,0-21.8,4.2-30.1,12.5c-8.3,8.3-12.4,18.4-12.4,30c0,11.7,4.2,21.8,12.4,30.1
		c8.2,8.2,18.4,12.4,30.1,12.4c6,0,14.2-2.3,24.2-6.8V46h-20.6v21.9h-3.6c-6,0-11.2-2.2-15.5-6.5c-4.2-4.3-6.4-9.5-6.4-15.5
		c0-6,2.2-11.2,6.4-15.4c4.2-4.2,9.4-6.4,15.5-6.4c6.7,0,13,0.8,18.7,2.3v-21C639.5,4.1,633.2,3.5,626.3,3.5"/>
	<polygon class="st0" points="112.4,83.3 123.5,90.2 123.9,83.3 	"/>
	<polygon class="st0" points="155.3,82.8 165.9,90.2 170.1,83 	"/>
	<polygon class="st0" points="261.9,83.5 272.9,90.4 276,83.5 	"/>
	<polygon class="st0" points="297.2,83.5 308.2,90.4 312.5,83 	"/>
	<polygon class="st0" points="162.2,90.2 123.5,90.2 123.5,15.6 143.1,15.6 143.1,70.6 162.2,70.6 	"/>
	<path class="st0" d="M327.8,90.4h-19.6V60.6c0-5.2-1.4-9.9-4.3-14.1c-2.9-4.2-6.7-7.2-11.3-9.2v53.1h-19.6V15.6h9.8
		c9.3,0,17.8,2.6,25.5,7.8v-7.8h19.6V90.4z"/>
	<rect x="165.9" y="15.6" class="st0" width="19.6" height="74.6"/>
	<path class="st0" d="M265.3,53c0,10.4-3.7,19.2-11,26.4c-7.3,7.3-16.1,10.9-26.4,10.9c-10.3,0-19.2-3.6-26.5-10.9
		c-7.3-7.3-11-16.1-11-26.4c0-10.2,3.7-19,11-26.3c7.3-7.3,16.2-11,26.5-11c10.2,0,19,3.7,26.4,11C261.7,34,265.3,42.8,265.3,53
		 M245.7,52.9c0-4.9-1.7-9-5.2-12.4c-3.5-3.4-7.6-5.2-12.5-5.2c-4.9,0-9.1,1.7-12.6,5.2c-3.5,3.4-5.3,7.6-5.3,12.4
		c0,4.9,1.8,9.1,5.3,12.5c3.5,3.5,7.7,5.2,12.6,5.2c4.9,0,9.1-1.8,12.5-5.2C243.9,62,245.7,57.8,245.7,52.9"/>
	<polygon class="st0" points="132.8,7.8 143.1,15.6 132.3,30.5 	"/>
	<polygon class="st0" points="152.1,62.8 162.2,70.6 151.7,76.3 	"/>
	<polyline class="st0" points="175,35.1 185.5,15.6 175.5,7.9 	"/>
	<polygon class="st0" points="317.6,7.9 327.8,15.6 317.3,30.5 	"/>
	<polygon class="st1" points="152.6,82.7 113.9,82.7 113.9,8.1 133.5,8.1 133.5,63.1 152.6,63.1 	"/>
	<path class="st0" d="M153.8,83.9h-41.2v-77h22.1v54.9h19.1V83.9z M115.1,81.5h36.4V64.3h-19.1V9.4h-17.2V81.5z"/>
	<path class="st1" d="M318.2,82.9h-19.6V53.1c0-5.2-1.4-9.9-4.3-14c-2.9-4.2-6.7-7.3-11.3-9.3v53.1h-19.6V8.1h9.8
		c9.3,0,17.8,2.6,25.5,7.8V8.1h19.6V82.9z"/>
	<path class="st0" d="M319.5,84.1h-22.1v-31c0-4.9-1.4-9.4-4.1-13.4c-2.4-3.5-5.4-6.2-9.1-8v52.4h-22V6.9h11
		c8.7,0,16.9,2.3,24.3,6.8V6.9h22.1V84.1z M299.8,81.7H317V9.4h-17.2v8.9l-1.9-1.3c-7.4-5-15.8-7.6-24.8-7.6h-8.6v72.3h17.2V27.9
		l1.7,0.7c4.8,2.1,8.8,5.3,11.8,9.7c3,4.3,4.5,9.3,4.5,14.7V81.7z"/>
	<rect x="156.3" y="8.1" class="st1" width="19.6" height="74.6"/>
	<path class="st0" d="M177.1,83.9h-22v-77h22V83.9z M157.5,81.5h17.2V9.3h-17.2V81.5z"/>
	<path class="st1" d="M255.7,45.5c0,10.3-3.7,19.2-11,26.4c-7.3,7.3-16.1,10.9-26.4,10.9c-10.3,0-19.2-3.6-26.5-10.9
		c-7.3-7.3-11-16.1-11-26.4c0-10.2,3.7-19,11-26.4c7.3-7.3,16.2-11,26.5-11c10.2,0,19,3.7,26.4,11C252.1,26.5,255.7,35.3,255.7,45.5
		 M236.1,45.4c0-4.9-1.7-9-5.2-12.4c-3.4-3.4-7.6-5.1-12.5-5.1c-4.9,0-9.1,1.7-12.6,5.1c-3.5,3.4-5.3,7.6-5.3,12.4
		c0,4.9,1.8,9,5.3,12.5c3.5,3.5,7.7,5.2,12.6,5.2c4.9,0,9.1-1.8,12.5-5.2C234.3,54.5,236.1,50.3,236.1,45.4"/>
	<path class="st0" d="M218.4,84.1c-10.6,0-19.8-3.8-27.4-11.3c-7.5-7.5-11.4-16.7-11.4-27.3c0-10.5,3.8-19.7,11.4-27.2
		c7.5-7.5,16.8-11.4,27.4-11.4c10.5,0,19.7,3.8,27.2,11.4C253.1,25.8,257,35,257,45.5c0,10.6-3.8,19.8-11.4,27.3
		C238,80.3,228.9,84.1,218.4,84.1 M218.4,9.4c-10,0-18.6,3.6-25.7,10.6c-7.1,7.1-10.7,15.7-10.7,25.5c0,9.9,3.6,18.6,10.7,25.6
		c7.1,7,15.7,10.6,25.7,10.6c9.8,0,18.4-3.6,25.5-10.6c7.1-7,10.7-15.6,10.7-25.6c0-9.8-3.6-18.4-10.7-25.5
		C236.8,12.9,228.2,9.4,218.4,9.4 M218.4,64.4c-5.2,0-9.7-1.9-13.4-5.6c-3.7-3.7-5.6-8.2-5.6-13.4c0-5.2,1.9-9.7,5.6-13.3
		c3.7-3.6,8.2-5.5,13.4-5.5c5.2,0,9.7,1.9,13.4,5.5c3.7,3.6,5.5,8.1,5.5,13.3c0,5.2-1.9,9.7-5.5,13.4
		C228.1,62.5,223.6,64.4,218.4,64.4 M218.4,29c-4.6,0-8.5,1.6-11.7,4.8c-3.3,3.2-4.9,7-4.9,11.6c0,4.6,1.6,8.4,4.9,11.7
		c3.2,3.2,7.2,4.9,11.7,4.9c4.5,0,8.5-1.6,11.6-4.9c3.3-3.3,4.8-7.1,4.8-11.7c0-4.6-1.6-8.4-4.8-11.6C226.8,30.6,223,29,218.4,29"/>
	<polygon class="st0" points="716.2,10 726.8,17.3 726.8,39.8 716.2,32.4 	"/>
	<polygon class="st0" points="720.4,83.2 731,90.5 750.7,90.5 740.2,83.2 	"/>
	<polygon class="st0" points="740.2,8.1 750.7,15.4 740.2,29.6 	"/>
	<polygon class="st0" points="746,83.2 756.6,90.5 776.2,90.5 765.7,83.2 	"/>
	<polygon class="st0" points="780,83.2 790.6,90.5 810.5,90.5 799.9,83.2 	"/>
	<polygon class="st0" points="835.3,9.8 845.9,17.2 845.9,39.7 835.3,32.3 	"/>
	<polygon class="st0" points="862.2,7.8 871.8,15.3 862.2,38.4 	"/>
	<polygon class="st0" points="893.9,7.8 903.4,15.3 893.9,29 	"/>
	<polygon class="st0" points="935.6,8.1 945.2,15.6 943.4,35.2 933.8,27.7 	"/>
	<path class="st0" d="M896.4,82.8l9.6,7.5l1.2-7.6C907.3,82.7,901.2,83.8,896.4,82.8"/>
	<path class="st0" d="M726.8,88.7c-4,1.2-8,1.8-11.9,1.8c-10.3,0-19.1-3.7-26.5-11c-7.4-7.3-11-16.2-11-26.5
		c0-10.3,3.7-19.1,11-26.5c7.4-7.4,16.2-11,26.5-11c3.9,0,7.9,0.6,11.9,1.8v22.4c-3.4-3-7.3-4.5-11.9-4.5c-4.9,0-9.1,1.7-12.6,5.2
		c-3.5,3.4-5.2,7.6-5.2,12.5c0,4.9,1.7,9.1,5.2,12.6c3.4,3.5,7.6,5.2,12.6,5.2c4.3,0,8.3-1.5,11.9-4.4V88.7z"/>
	<rect x="731" y="15.4" class="st0" width="19.8" height="75.1"/>
	<path class="st0" d="M810.5,90.5h-19.9c0-4.3-1.4-8.3-4.1-11.9c-2.7-3.6-6.2-6.1-10.3-7.4v19.3h-19.7v-75h20.7
		c7.4,0,13.8,2.7,19.1,8c5.3,5.3,8,11.7,8,19.1c0,6.9-2.4,13-7.2,18.3C806.1,69.2,810.5,79.1,810.5,90.5 M784.7,42.5
		c0-2.2-0.8-4-2.5-5.4c-1.7-1.3-3.7-2-6-2v14.8c2.3,0,4.3-0.7,6-2C783.9,46.5,784.7,44.8,784.7,42.5"/>
	<path class="st0" d="M845.9,88.7c-4,1.2-8,1.8-11.9,1.8c-10.3,0-19.1-3.7-26.5-11c-7.4-7.3-11.1-16.2-11.1-26.6
		c0-10.3,3.7-19.1,11.1-26.5c7.4-7.4,16.2-11.1,26.5-11.1c3.9,0,7.9,0.6,11.9,1.9v22.5c-3.3-3-7.3-4.5-11.9-4.5
		c-4.9,0-9.1,1.7-12.6,5.2c-3.5,3.5-5.2,7.6-5.2,12.5c0,4.9,1.7,9.1,5.2,12.6c3.5,3.5,7.7,5.3,12.6,5.3c4.4,0,8.3-1.5,11.9-4.4V88.7
		z"/>
	<path class="st0" d="M903.4,65.1c0,7.1-2.5,13.1-7.4,18.1c-4.9,5-10.9,7.4-17.9,7.4c-7.1,0-13.2-2.5-18.2-7.4c-5-5-7.5-11-7.5-18.1
		V15.3h19.3v49.8c0,4,2.1,6.1,6.4,6.1c3.9,0,5.9-2,5.9-6.1V15.3h19.3V65.1z"/>
	<path class="st0" d="M945.2,15.6l-1.8,19.6c-6.3-0.6-9.6,0.8-10,4.2c-0.2,2.5,0.3,4.7,1.5,6.6c3.5,5.4,5.3,11.3,5.3,17.8
		c0,8.4-2.9,15-8.6,19.9c-5.3,4.6-12.2,7-20.6,7c-1.6,0-3.2-0.1-5-0.3l1.7-19.6c1.3,0.2,2.6,0.3,3.8,0.3c5.7,0,8.8-2,9.1-6
		c0.2-2.9-0.6-5.7-2.3-8.5c-3.2-5-4.8-10.4-4.8-16.3c0-7.8,2.7-14,8-18.6c5.1-4.2,11.6-6.3,19.4-6.3
		C942.3,15.4,943.8,15.5,945.2,15.6"/>
	<polygon class="st0" points="716.7,57.9 726.8,66.4 726.8,88.7 716.2,81.3 	"/>
	<polygon class="st0" points="835.8,58 845.9,66.4 845.9,88.7 835.8,81.1 	"/>
	<path class="st1" d="M717.2,81.2c-4,1.2-8,1.8-11.9,1.8c-10.3,0-19.1-3.7-26.5-11c-7.4-7.3-11.1-16.2-11.1-26.5
		c0-10.3,3.7-19.1,11.1-26.5c7.4-7.4,16.2-11,26.5-11c3.9,0,7.9,0.6,11.9,1.8v22.5c-3.4-3-7.3-4.5-11.9-4.5c-4.9,0-9.1,1.7-12.6,5.1
		c-3.5,3.5-5.2,7.6-5.2,12.5c0,4.9,1.7,9.1,5.2,12.6c3.5,3.5,7.6,5.2,12.6,5.2c4.3,0,8.3-1.4,11.9-4.3V81.2z"/>
	<path class="st0" d="M705.3,84.2c-10.6,0-19.7-3.8-27.3-11.3c-7.6-7.5-11.4-16.7-11.4-27.4c0-10.5,3.8-19.7,11.4-27.3
		c7.6-7.6,16.8-11.4,27.3-11.4c4.1,0,8.2,0.6,12.2,1.9l0.9,0.3v26l-2-1.8c-3.1-2.8-6.8-4.2-11.1-4.2c-4.6,0-8.5,1.6-11.7,4.8
		c-3.3,3.2-4.8,7.1-4.8,11.7c0,4.6,1.6,8.5,4.8,11.7c3.2,3.3,7.1,4.9,11.7,4.9c4.1,0,7.8-1.4,11.1-4.1l2-1.6v25.7l-0.9,0.3
		C713.5,83.6,709.3,84.2,705.3,84.2 M705.3,9.2c-9.9,0-18.5,3.6-25.6,10.7C672.6,27,669,35.6,669,45.5c0,10,3.6,18.6,10.7,25.7
		c7.1,7.1,15.7,10.6,25.6,10.6c3.5,0,7.1-0.5,10.7-1.5v-19c-3.3,2.1-6.8,3.2-10.7,3.2c-5.2,0-9.8-1.9-13.4-5.6
		c-3.7-3.7-5.5-8.2-5.5-13.4c0-5.2,1.9-9.7,5.5-13.4c3.7-3.7,8.2-5.5,13.4-5.5c4,0,7.6,1.1,10.7,3.2V10.7
		C712.5,9.7,708.9,9.2,705.3,9.2"/>
	<path class="st1" d="M800.9,83H781c0-4.3-1.4-8.3-4.1-11.9c-2.7-3.6-6.2-6.1-10.3-7.4V83H747V8h20.7c7.4,0,13.8,2.7,19.1,8
		c5.3,5.3,8,11.7,8,19.1c0,6.9-2.4,13-7.2,18.3C796.5,61.7,800.9,71.6,800.9,83 M775.1,35c0-2.3-0.8-4-2.5-5.4c-1.7-1.4-3.7-2-6-2
		v14.8c2.3,0,4.3-0.7,6-2C774.3,39.1,775.1,37.3,775.1,35"/>
	<path class="st0" d="M802.1,84.2h-22.3V83c0-4.1-1.3-7.8-3.9-11.2c-2.2-2.9-4.9-5.1-8.1-6.4v18.8h-22.1V6.8h21.8
		c7.7,0,14.5,2.8,20,8.3c5.5,5.5,8.4,12.3,8.4,20c0,6.8-2.3,12.9-6.7,18.2c8.5,8.3,12.9,18.3,12.9,29.7V84.2z M782.2,81.8h17.5
		c-0.3-10.5-4.6-19.8-12.9-27.5l-0.9-0.8l0.8-0.9c4.6-5.1,6.9-11,6.9-17.5c0-7.2-2.5-13.1-7.6-18.3c-5.1-5.1-11.2-7.6-18.3-7.6
		h-19.4v72.7h17.2V62.1l1.6,0.5c4.4,1.4,8,4,10.9,7.8C780.5,73.9,782,77.7,782.2,81.8 M766.6,43.6h-1.2V26.4h1.2
		c2.6,0,4.9,0.8,6.7,2.3c2,1.6,2.9,3.7,2.9,6.3c0,2.6-1,4.8-3,6.3C771.5,42.8,769.2,43.6,766.6,43.6 M767.9,28.9v12.2
		c1.5-0.2,2.9-0.7,4-1.7c1.4-1.1,2.1-2.5,2.1-4.4c0-1.9-0.7-3.3-2-4.4C770.7,29.6,769.4,29.1,767.9,28.9"/>
	<path class="st1" d="M836.3,81.2c-4,1.2-8,1.8-11.9,1.8c-10.3,0-19.1-3.7-26.5-11c-7.4-7.3-11.1-16.2-11.1-26.6
		c0-10.3,3.7-19.1,11.1-26.5c7.4-7.4,16.2-11.1,26.5-11.1c3.9,0,7.9,0.6,11.9,1.8v22.5c-3.4-3-7.4-4.5-11.9-4.5
		c-4.9,0-9.1,1.7-12.6,5.2c-3.5,3.4-5.2,7.6-5.2,12.5c0,4.9,1.7,9.1,5.2,12.6c3.5,3.5,7.7,5.3,12.6,5.3c4.3,0,8.3-1.5,11.9-4.3V81.2
		z"/>
	<path class="st0" d="M824.4,84.2c-10.6,0-19.8-3.8-27.4-11.3c-7.6-7.5-11.4-16.7-11.4-27.4c0-10.6,3.8-19.8,11.4-27.4
		c7.6-7.6,16.8-11.4,27.4-11.4c4,0,8.1,0.6,12.3,1.9l0.8,0.3v26.1l-2-1.8c-3.2-2.8-6.8-4.2-11.1-4.2c-4.6,0-8.5,1.6-11.7,4.8
		c-3.3,3.3-4.8,7.1-4.8,11.7c0,4.5,1.6,8.5,4.9,11.8c3.2,3.3,7.1,4.9,11.7,4.9c4,0,7.8-1.4,11.2-4.1l2-1.6v25.7l-0.8,0.3
		C832.5,83.6,828.4,84.2,824.4,84.2 M824.4,9.1c-10.1,0-18.5,3.5-25.7,10.7c-7.1,7.1-10.7,15.8-10.7,25.7c0,10,3.6,18.7,10.7,25.7
		c7.1,7.1,15.8,10.7,25.7,10.7c3.5,0,7-0.5,10.7-1.5v-19c-3.3,2.1-6.9,3.2-10.7,3.2c-5.3,0-9.8-1.9-13.4-5.6
		c-3.7-3.7-5.6-8.3-5.6-13.5c0-5.2,1.9-9.7,5.6-13.4c3.7-3.7,8.2-5.5,13.4-5.5c4,0,7.6,1.1,10.7,3.3V10.6
		C831.4,9.6,827.9,9.1,824.4,9.1"/>
	<path class="st1" d="M893.9,57.6c0,7.1-2.5,13.1-7.4,18.1c-4.9,5-10.9,7.5-17.9,7.5c-7.1,0-13.2-2.5-18.2-7.5c-5-5-7.5-11-7.5-18.1
		V7.8h19.3v49.8c0,4,2.1,6.1,6.4,6.1c3.9,0,5.9-2,5.9-6.1V7.8h19.3V57.6z"/>
	<path class="st0" d="M868.6,84.4c-7.4,0-13.8-2.6-19.1-7.8c-5.2-5.2-7.9-11.6-7.9-19v-51h21.8v51c0,3.4,1.6,4.9,5.2,4.9
		c3.3,0,4.7-1.5,4.7-4.9v-51h21.7v51c0,7.4-2.6,13.8-7.7,19C882.2,81.8,875.9,84.4,868.6,84.4 M844.1,9v48.6
		c0,6.8,2.3,12.5,7.2,17.2c4.8,4.8,10.5,7.1,17.4,7.1c6.7,0,12.3-2.3,17-7.1c4.7-4.8,7-10.4,7-17.3V9h-16.9v48.6
		c0,4.7-2.5,7.3-7.1,7.3c-4.9,0-7.6-2.6-7.6-7.3V9H844.1z"/>
	<path class="st1" d="M935.6,8.1l-1.8,19.6c-6.3-0.5-9.6,0.9-10,4.2c-0.2,2.6,0.3,4.8,1.5,6.6c3.5,5.4,5.3,11.4,5.3,17.7
		c0,8.4-2.9,15.1-8.6,19.9c-5.3,4.6-12.2,7-20.6,7c-1.6,0-3.2-0.1-5-0.3l1.7-19.6c1.3,0.2,2.6,0.3,3.8,0.3c5.7,0,8.8-2,9.1-6
		c0.2-2.9-0.6-5.7-2.3-8.5c-3.2-5-4.8-10.4-4.8-16.3c0-7.9,2.6-14,8-18.6c5.1-4.2,11.5-6.3,19.4-6.3C932.8,7.9,934.2,8,935.6,8.1"/>
	<path class="st0" d="M901.4,84.3c-1.6,0-3.3-0.1-5.1-0.3l-1.1-0.1l1.9-22l1.3,0.2c1.3,0.2,2.5,0.3,3.6,0.3c6.7,0,7.8-2.8,7.9-4.9
		c0.2-2.6-0.5-5.1-2.1-7.7c-3.3-5.1-5-10.8-5-16.9c0-8.2,2.8-14.8,8.4-19.5c5.3-4.4,12.1-6.6,20.2-6.6c1.3,0,2.7,0.1,4.4,0.2
		l1.2,0.1l-2.1,22l-1.2-0.1c-5.5-0.5-8.4,0.6-8.7,3.1c-0.2,2.3,0.2,4.2,1.3,5.9c3.7,5.6,5.5,11.8,5.5,18.4c0,8.8-3,15.8-9.1,20.8
		C917.3,81.9,910.1,84.3,901.4,84.3 M897.8,81.7c1.3,0.1,2.5,0.2,3.7,0.2c8.1,0,14.7-2.2,19.8-6.7c5.5-4.6,8.2-11,8.2-19
		c0-6.1-1.7-11.9-5.1-17.1c-1.4-2.1-1.9-4.6-1.7-7.4c0.3-2.7,2.3-5.7,10.1-5.3l1.6-17.2c-1.1-0.1-2.1-0.1-3-0.1
		c-7.5,0-13.8,2-18.6,6c-5.1,4.3-7.6,10.1-7.6,17.7c0,5.6,1.5,10.9,4.6,15.6c1.9,3,2.8,6.1,2.5,9.2c-0.3,3.2-2.3,7.1-10.3,7.1
		c-0.8,0-1.8-0.1-2.7-0.2L897.8,81.7z"/>
	<rect x="721.4" y="7.9" class="st1" width="19.8" height="75.1"/>
	<path class="st0" d="M742.3,84.2h-22.2V6.7h22.2V84.2z M722.6,81.8h17.4V9.1h-17.4V81.8z"/>
	<path class="st0" d="M964.5,86c0,6.2-4.9,11.1-11.2,11.1c-6.3,0-11.3-4.9-11.3-11.1c0-6.1,5-11,11.3-11
		C959.6,75,964.5,79.9,964.5,86 M944.7,86c0,4.9,3.6,8.8,8.6,8.8c4.8,0,8.4-3.9,8.4-8.7c0-4.9-3.5-8.8-8.4-8.8
		C948.3,77.2,944.7,81.2,944.7,86 M951.5,91.7h-2.5v-11c1-0.2,2.4-0.3,4.2-0.3c2.1,0,3,0.3,3.8,0.8c0.6,0.5,1.1,1.3,1.1,2.4
		c0,1.2-0.9,2.1-2.3,2.5v0.1c1.1,0.4,1.7,1.2,2,2.7c0.3,1.7,0.5,2.3,0.8,2.7h-2.7c-0.3-0.4-0.5-1.4-0.9-2.7
		c-0.2-1.2-0.9-1.7-2.3-1.7h-1.2V91.7z M951.5,85.5h1.2c1.4,0,2.5-0.5,2.5-1.6c0-1-0.7-1.7-2.3-1.7c-0.7,0-1.1,0.1-1.4,0.1V85.5z"/>
	<polygon class="st2" points="48,5.9 62,34.3 93.4,38.9 70.7,61 76,92.3 48,77.5 19.9,92.3 25.3,61 2.6,38.9 33.9,34.3 	"/>
	<polygon class="st2" points="1013.1,5.9 1027.1,34.3 1058.5,38.9 1035.8,61 1041.2,92.3 1013.1,77.5 985.1,92.3 990.4,61 
		967.7,38.9 999.1,34.3 	"/>
</g>
</svg>
